<svg xmlns="http://www.w3.org/2000/svg" xmlns:xlink="http://www.w3.org/1999/xlink"><defs><style>
    .sprite-symbol-usage {display: none;}
    .sprite-symbol-usage:target {display: inline;}
  </style><symbol fill="none" viewBox="0 0 183 61" id="all-champs"><path d="M13.342 23.966H5.92L3.977 28.17H1.169L9.745 9.744l8.272 18.426h-2.854l-1.821-4.204zm-1.078-2.46L9.7 15.603l-2.686 5.905h5.251zm14.677-10.67v14.875h5.1v2.46h-7.71V10.835h2.61zm14.8 0v14.875h5.1v2.46H39.13V10.835h2.61zm36.686.926v3.112c-1.518-1.275-3.081-1.897-4.69-1.897-1.791 0-3.294.637-4.508 1.912-1.23 1.275-1.837 2.823-1.837 4.675 0 1.822.607 3.355 1.837 4.6 1.23 1.259 2.732 1.881 4.508 1.881.925 0 1.715-.152 2.352-.455a6.24 6.24 0 001.108-.607c.395-.258.805-.562 1.23-.91v3.156c-1.503.835-3.066 1.26-4.72 1.26-2.475 0-4.6-.865-6.345-2.596-1.746-1.745-2.611-3.84-2.611-6.314 0-2.2.729-4.174 2.186-5.904 1.79-2.11 4.113-3.172 6.982-3.172 1.548 0 3.05.425 4.508 1.26zM89.4 17.621h7.484v-6.784h2.626V28.17h-2.626v-8.09H89.4v8.09h-2.61V10.836h2.61v6.785zm28.567 6.345h-7.422l-1.928 4.204h-2.808l8.576-18.426 8.272 18.426h-2.869l-1.821-4.204zm-1.062-2.46l-2.566-5.904-2.701 5.905h5.267zm11.003 6.664l3.643-18.639 5.95 13.479 6.163-13.479 3.278 18.64h-2.687l-1.669-10.459-5.13 11.263-4.979-11.278-1.867 10.473h-2.702zm28.991-7.042v7.042h-2.61V10.836h2.959c1.457 0 2.55.107 3.294.304a4.224 4.224 0 011.973 1.154c1.002.971 1.488 2.2 1.488 3.673 0 1.594-.516 2.853-1.579 3.78-1.062.925-2.504 1.38-4.31 1.38h-1.215zm0-2.414h.987c2.398 0 3.597-.926 3.597-2.777 0-1.792-1.229-2.687-3.719-2.687h-.865v5.464zm23.74-5.297l-2.11 1.26c-.395-.683-.774-1.139-1.139-1.351-.364-.228-.85-.35-1.442-.35-.728 0-1.335.198-1.821.608-.471.41-.713.91-.713 1.533 0 .835.637 1.533 1.897 2.049l1.73.698c1.397.577 2.429 1.275 3.081 2.08.653.82.972 1.836.972 3.02 0 1.594-.531 2.914-1.594 3.946-1.078 1.063-2.398 1.579-3.992 1.579-1.502 0-2.732-.44-3.718-1.336-.972-.895-1.564-2.14-1.807-3.764l2.656-.577c.107 1.017.319 1.715.623 2.11.546.744 1.32 1.123 2.352 1.123.82 0 1.503-.273 2.034-.82.547-.546.82-1.244.82-2.079 0-.334-.046-.652-.152-.926a2.327 2.327 0 00-.44-.774c-.197-.243-.455-.455-.759-.668a9.478 9.478 0 00-1.123-.592l-1.685-.698c-2.368-.986-3.552-2.459-3.552-4.402 0-1.29.501-2.383 1.488-3.263 1.002-.88 2.246-1.32 3.719-1.32 2.003 0 3.566.971 4.675 2.914z" fill="currentColor" /><path fill-rule="evenodd" clip-rule="evenodd" d="M57.29 27.113l2.626-.425 6.745 15.664 2.755-4.023 3.66 2.69 3.14-7.26 7.239 7.45H183v2.663H82.277l-5.168-5.32-2.877 6.653-4.15-3.05-3.972 5.802-6.48-15.047-1.124 16.24-2.63.413-3.362-8.041-1.32 2.53-6.337-4.17-3.93 4.745-9.512-3.363-3.805 1.782H0v-2.663h26.986l4.28-2.004 8.759 3.097 4.28-5.17 5.854 3.852 2.63-5.041 3.387 8.101 1.114-16.105z" fill="currentColor" /></symbol><symbol fill="none" id="arrow"><path d="M6 1l6 6m0 0l-6 6.75M12 7H.75" stroke="currentColor" /></symbol><symbol fill="none" viewBox="0 0 23 16" id="arrow-dashed"><path fill-rule="evenodd" clip-rule="evenodd" d="M22.13 7.866l.313-.352-.333-.334-6.4-6.4-.707.707 5.546 5.547H10.29v1h10.354l-5.66 6.368.747.664 6.4-7.2zm-12.907.168v-1H4.956v1h4.267zm-5.333 0H.956v-1H3.89v1z" fill="currentColor" /></symbol><symbol fill="none" viewBox="0 0 15 19" id="arrow-dashed-down"><path d="M14.6 10.856l-6.4 6.4m0 0l-7.2-6.4m7.2 6.4V5.5m0-5.5v4M3.6 18.5h8" stroke="currentColor" /></symbol><symbol fill="none" viewBox="0 0 22 22" id="burgers"><path d="M21 1H1v4h20V1zM21 9H1v4h20V9zM21 17H1v4h20v-4z" stroke="currentColor" /></symbol><symbol fill="none" viewBox="0 0 16 16" id="calendar"><path fill-rule="evenodd" clip-rule="evenodd" d="M3.508.5h-.733v1.14H0V16h16V1.64h-2.827V.5H11.44v1.14H4.508V.5h-1zm7.932 2.14H4.508V3.9H2.775V2.64H1v2.282h14V2.64h-1.827V3.9H11.44V2.64zM15 5.922H1V15h14V5.922z" fill="currentColor" /></symbol><symbol fill="none" viewBox="0 0 22 23" id="calendar-table"><path d="M21.422 1H.5v20.922h20.922V1zM.577 5.367H21.42M.577 10.886H21.42M.577 16.403H21.42M5.873 5.367V22M11.078 5.367V22M16.283 5.367V22" stroke="currentColor" /></symbol><symbol viewBox="0 0 12 7" id="chevron-down"><path d="M5.946 4.91L10.83.5l.67.742-5.22 4.712-.334.303-.335-.303L.39 1.242 1.062.5z" fill="currentColor" fill-rule="evenodd" /></symbol><symbol fill="none" viewBox="0 0 6 12" id="chevron-left"><path fill-rule="evenodd" clip-rule="evenodd" d="M1.59 6.446L6 11.33l-.742.67L.546 6.78l-.303-.334.303-.335L5.258.89l.742.67-4.41 4.885z" fill="currentColor" /></symbol><symbol fill="none" viewBox="0 0 6 12" id="chevron-right"><path fill-rule="evenodd" clip-rule="evenodd" d="M4.41 5.554L0 .67.742 0l4.712 5.22.303.334-.303.335-4.712 5.22-.742-.67 4.41-4.885z" fill="currentColor" /></symbol><symbol viewBox="0 0 12 7" id="chevron-up"><path d="M6.054 2.09L1.17 6.5.5 5.758l5.22-4.712.334-.303.335.303 5.22 4.712-.67.742z" fill="currentColor" fill-rule="evenodd" /></symbol><symbol fill="none" viewBox="0 0 22 22" id="edit"><path d="M10.143 2.714H1v18.285h18.286v-9.142" stroke="currentColor" /><path d="M7.737 10.733L17.47 1l3.484 3.484-9.733 9.733m-3.484-3.484l-.47 3.954 3.954-.47m-3.484-3.484l3.484 3.484M15.793 2.317L19.277 5.8" stroke="currentColor" /></symbol><symbol fill="none" viewBox="0 0 8 16" id="facebook"><path d="M5.95 3.05H8V0H5.575C2.65.125 2.05 1.775 2 3.5v1.525H0V8h2v8h3V8h2.475l.475-2.975H5V4.1c0-.575.4-1.05.95-1.05z" fill="currentColor" /></symbol><symbol fill="none" viewBox="0 0 16 16" id="instagram"><path fill-rule="evenodd" clip-rule="evenodd" d="M8 0c2.173 0 2.445.01 3.298.049.852.038 1.433.174 1.942.371.526.205.973.478 1.417.923.445.445.719.891.923 1.417.198.509.333 1.09.372 1.942.039.853.048 1.126.048 3.299 0 2.172-.01 2.445-.048 3.298-.039.851-.174 1.433-.372 1.942a3.922 3.922 0 01-.923 1.417c-.444.444-.89.718-1.417.923-.509.197-1.09.333-1.942.371-.853.04-1.125.048-3.298.048s-2.445-.009-3.298-.048c-.852-.038-1.433-.174-1.942-.371a3.922 3.922 0 01-1.417-.923A3.921 3.921 0 01.42 13.24c-.198-.51-.333-1.09-.372-1.942C.01 10.446 0 10.173 0 8c0-2.173.01-2.446.048-3.299C.087 3.851.222 3.27.42 2.76c.204-.526.478-.972.923-1.417.444-.445.89-.718 1.417-.923C3.269.223 3.85.087 4.702.05 5.555.009 5.827 0 8 0zm0 1.442c-2.136 0-2.39.008-3.233.047-.78.035-1.203.165-1.485.275-.374.145-.64.319-.92.598-.28.28-.453.547-.598.92-.11.282-.24.706-.276 1.486C1.45 5.61 1.441 5.864 1.441 8c0 2.136.009 2.389.047 3.232.036.78.166 1.204.276 1.486.145.373.318.64.598.92.28.28.546.453.92.598.282.11.705.24 1.485.275.844.039 1.097.047 3.233.047s2.39-.008 3.233-.047c.78-.035 1.203-.165 1.485-.275.374-.145.64-.319.92-.598.28-.28.453-.547.598-.92.11-.282.24-.706.276-1.486.038-.843.047-1.096.047-3.232 0-2.137-.009-2.39-.047-3.233-.036-.78-.166-1.204-.276-1.486a2.479 2.479 0 00-.598-.92 2.478 2.478 0 00-.92-.598c-.282-.11-.705-.24-1.485-.275-.844-.039-1.097-.047-3.233-.047zm0 2.45a4.108 4.108 0 110 8.216 4.108 4.108 0 010-8.216zm0 6.775a2.667 2.667 0 100-5.333 2.667 2.667 0 000 5.333zm5.23-6.937a.96.96 0 11-1.92 0 .96.96 0 011.92 0z" fill="currentColor" /></symbol><symbol viewBox="0 0 975 1387" id="map-marker"><g fill="currentColor"><path d="M445 1.5C326.9 12.8 222.4 62.3 140.9 145.8 74.1 214.1 29.1 299.1 10.1 393.1 3.3 426.3.6 454.1.6 490c0 57.8 10.2 119.6 28.5 172.6 31.6 91.6 152.7 288.5 358.5 583 81.8 117 99 141.3 99.9 141 .6-.1 5.1-6.1 10.1-13.2 4.9-7.1 26.1-37.2 46.9-66.9 224.7-320 344-510.3 390.3-622.5 16.5-40.1 25.8-72.5 32.6-114 7.9-48.5 9.2-90.5 4-134.5-12.8-110-60-209.7-136.4-287.9-39-40-80.1-70.1-129.5-95.1C651.9 25.4 600.7 10.1 538 2.4c-18.7-2.2-73.3-2.8-93-.9zm87 74c73.9 9 141.7 35.8 199.6 78.8 97.2 72.1 157.4 180 168.4 302.1 4.5 50.4-3.8 116.9-21 168.6-30.6 91.5-132.5 261.2-316.8 528-27.1 39.2-73 105-74.2 106.3-.7.8-46.7-64.3-91.7-129.8C221.8 875.8 121.5 709.5 96 632c-14.5-44.2-24.4-111.8-22.5-153.5 4.3-95 35.3-179.3 92.1-250.5 13.9-17.5 47.2-50.7 64.2-64.2 67.2-53.5 143.5-83.3 230.7-90.2 11.9-.9 58.6.3 71.5 1.9z" /><path d="M474 291c-84.3 6.1-153.3 67.2-170.1 150.6-2.7 13.6-3.7 43.2-2 58.3 9.8 84 76.8 151.5 161.4 162.6 96.9 12.7 187.3-51.8 207.1-147.7 4.2-20.2 4.6-49.9 1.1-69.8-6.8-38.1-24.6-72.1-51.9-99.6-38.4-38.5-91.5-58.3-145.6-54.4zm33.2 74.5c21.5 3.7 41.6 13.9 58 29.3 46.6 43.8 47.6 117.2 2.3 162.7C555 570.1 540 579.4 523 585c-54 18.1-112.7-6.9-137.7-58.6-7.2-15-10.3-27.3-11-44-.9-20.1 2.1-35.4 10.3-53.2 9.6-21 28.5-40.8 49.4-52 9.4-5 23.1-9.9 33-11.7 10.1-1.8 29.8-1.8 40.2 0z" /></g></symbol><symbol fill="none" viewBox="0 0 9 11" id="play"><path d="M0 11V0l9 5.5L0 11z" fill="currentColor" /></symbol><symbol fill="none" viewBox="0 0 23 23" id="plus"><path d="M11.76 22.992h-1.008v-11.04H0v-.912h10.752V0h1.008v11.04h10.608v.912H11.76v11.04z" fill="currentColor" /></symbol><symbol fill="none" viewBox="0 0 17 11" id="quote"><path d="M5.124 0L3.675 5.579h2.046V11H.01V5.579L2.14 0h2.983zm10.312 0l-1.449 5.579h2.045V11h-5.71V5.579L12.454 0h2.983z" fill="currentColor" /></symbol><symbol fill="none" viewBox="0 0 18 18" id="time"><path d="M17.5 9a8.5 8.5 0 11-17 0 8.5 8.5 0 0117 0z" stroke="currentColor" /><path d="M9 5.063v4.5h4.5" stroke="currentColor" /></symbol><symbol viewBox="0 0 101.1 101.3" id="trash"><path fill="currentColor" class="st0" d="M98.5 17.8H68.3V2.3c0-1.4-1.2-2.6-2.6-2.6H35.4C34-.3 32.8.9 32.8 2.3v15.5H2.6C1.2 17.8 0 19 0 20.4S1.2 23 2.6 23h10.1v65.2c0 6.9 5.9 12.8 12.8 12.8h50.2c6.9 0 12.8-5.9 12.8-12.8V23h10.1c1.4 0 2.6-1.2 2.6-2.6s-1.2-2.6-2.7-2.6zM38 4.9h25.1v12.9H38V4.9zm45.2 83.3c0 4-3.6 7.6-7.6 7.6H25.5c-4 0-7.6-3.6-7.6-7.6V23h65.3v65.2z" /><path fill="currentColor" class="st0" d="M40.7 43c0-1.3-1.1-2.4-2.4-2.4S36 41.7 36 43v32.8c0 1.3 1.1 2.4 2.4 2.4s2.4-1.1 2.4-2.4V43zM65.1 43c0-1.3-1.1-2.4-2.4-2.4s-2.4 1.1-2.4 2.4v32.8c0 1.3 1.1 2.4 2.4 2.4s2.4-1.1 2.4-2.4V43z" /></symbol><symbol fill="none" viewBox="0 0 96 16" id="waveform"><path d="M0 9.67h24.977l2.688-1.116 6.072 1.904 2.728-2.923L40.517 9.9l1.313-2.232L50.262 14l8.206-12 5.97 9.697 4.287-4.162 4.103 2.923 5.108-4.065 4.124 3.763H96" stroke="currentColor" stroke-width="1.411" /></symbol><symbol fill="none" viewBox="0 0 40 11" id="waveform-2"><path d="M40 10h-8.863l-3.4-2.5-3.4 2.5h-3.4l-2.356-8-2.75 8-2.355-1.778L11.512 10H0" stroke="currentColor" /></symbol><symbol fill="none" viewBox="0 0 16 12" id="youtube"><path fill-rule="evenodd" clip-rule="evenodd" d="M14.26.843a2.005 2.005 0 011.41 1.41c.343 1.252.33 3.862.33 3.862s0 2.596-.33 3.848a2.005 2.005 0 01-1.41 1.41c-1.252.33-6.26.33-6.26.33s-4.995 0-6.26-.343A2.005 2.005 0 01.33 9.95C0 8.711 0 6.102 0 6.102s0-2.597.33-3.849A2.046 2.046 0 011.74.83C2.992.5 8 .5 8 .5s5.008 0 6.26.343zm-3.69 5.259L6.405 8.5V3.703l4.165 2.399z" fill="currentColor" /></symbol></defs><use id="all-champs-usage" xlink:href="#all-champs" class="sprite-symbol-usage" /><use id="arrow-usage" xlink:href="#arrow" class="sprite-symbol-usage" /><use id="arrow-dashed-usage" xlink:href="#arrow-dashed" class="sprite-symbol-usage" /><use id="arrow-dashed-down-usage" xlink:href="#arrow-dashed-down" class="sprite-symbol-usage" /><use id="burgers-usage" xlink:href="#burgers" class="sprite-symbol-usage" /><use id="calendar-usage" xlink:href="#calendar" class="sprite-symbol-usage" /><use id="calendar-table-usage" xlink:href="#calendar-table" class="sprite-symbol-usage" /><use id="chevron-down-usage" xlink:href="#chevron-down" class="sprite-symbol-usage" /><use id="chevron-left-usage" xlink:href="#chevron-left" class="sprite-symbol-usage" /><use id="chevron-right-usage" xlink:href="#chevron-right" class="sprite-symbol-usage" /><use id="chevron-up-usage" xlink:href="#chevron-up" class="sprite-symbol-usage" /><use id="edit-usage" xlink:href="#edit" class="sprite-symbol-usage" /><use id="facebook-usage" xlink:href="#facebook" class="sprite-symbol-usage" /><use id="instagram-usage" xlink:href="#instagram" class="sprite-symbol-usage" /><use id="map-marker-usage" xlink:href="#map-marker" class="sprite-symbol-usage" /><use id="play-usage" xlink:href="#play" class="sprite-symbol-usage" /><use id="plus-usage" xlink:href="#plus" class="sprite-symbol-usage" /><use id="quote-usage" xlink:href="#quote" class="sprite-symbol-usage" /><use id="time-usage" xlink:href="#time" class="sprite-symbol-usage" /><use id="trash-usage" xlink:href="#trash" class="sprite-symbol-usage" /><use id="waveform-usage" xlink:href="#waveform" class="sprite-symbol-usage" /><use id="waveform-2-usage" xlink:href="#waveform-2" class="sprite-symbol-usage" /><use id="youtube-usage" xlink:href="#youtube" class="sprite-symbol-usage" /></svg>